<svg width="60" height="60" viewBox="0 0 60 60" fill="none" xmlns="http://www.w3.org/2000/svg">
<g clip-path="url(#clip0_276_1106)">
<path fill-rule="evenodd" clip-rule="evenodd" d="M58.0434 25.8375C58.0434 33.4961 51.8116 39.7279 44.153 39.7279C36.4948 39.7279 30.263 33.4961 30.263 25.8375C30.263 18.8174 41.3375 2.59972 42.614 0.76019C43.2898 -0.253397 44.9791 -0.253397 45.6924 0.76019C46.9689 2.59972 58.0434 18.8174 58.0434 25.8375ZM51.5112 45.5467C47.2314 54.1061 38.3716 60.0004 28.1233 60.0004C13.6698 60.0004 1.95703 48.2872 1.95703 33.8715C1.95703 33.3836 1.95703 32.8954 2.03211 32.445C2.97062 34.4722 4.28454 36.5745 5.89881 38.5267C9.31506 42.7312 14.1578 46.5979 19.7515 47.7244C20.7651 47.9119 21.7411 47.2361 21.9664 46.2225C22.1541 45.2089 21.5159 44.2331 20.5023 44.0452C16.0724 43.1441 11.9054 39.9907 8.82703 36.1616C7.28784 34.2847 6.04899 32.295 5.22309 30.4552C4.54734 28.9537 4.17193 27.6022 4.05932 26.5886L4.07323 26.5822C3.13869 21.1021 4.68568 15.5083 8.45162 11.0092C13.1442 5.37805 20.5774 2.52494 28.3108 3.3133C29.3244 3.42592 30.0751 4.32693 30.0001 5.37805C29.8876 6.42921 28.9115 7.14247 27.9354 7.06739C21.3282 6.39168 15.2465 8.71919 11.3423 13.4494C8.43973 16.926 7.16319 21.1886 7.71984 25.4081C10.3413 24.9259 12.7253 25.302 14.9837 26.2882C18.888 28.0151 22.6423 31.6942 26.6214 36.9874C33.041 45.5467 40.3989 47.3115 46.2553 46.7482C48.245 46.5229 50.0469 46.0725 51.5112 45.5467Z" fill="#42990E"/>
</g>
<defs>
<clipPath id="clip0_276_1106">
<rect width="60" height="60" fill="white"/>
</clipPath>
</defs>
</svg>
