<svg width="50" height="50" viewBox="0 0 50 50" fill="none" xmlns="http://www.w3.org/2000/svg">
<path d="M44.241 5.75894C44.0005 5.51833 43.7149 5.32747 43.4006 5.19725C43.0863 5.06702 42.7494 5 42.4092 5C42.069 5 41.7322 5.06702 41.4179 5.19725C41.1036 5.32747 40.818 5.51833 40.5775 5.75894L27.4275 18.9089C28.1956 19.3174 28.8994 19.8367 29.5165 20.4499L29.552 20.4854C30.1639 21.104 30.681 21.8096 31.0865 22.5794L44.241 9.42444C44.4819 9.18388 44.673 8.8982 44.8034 8.58371C44.9338 8.26923 45.0009 7.93213 45.0009 7.59169C45.0009 7.25124 44.9338 6.91414 44.8034 6.59966C44.673 6.28518 44.4819 5.99949 44.241 5.75894Z" fill="#42990E"/>
<path d="M30.3591 30.0661C31.048 28.6092 31.2718 26.9756 31.0001 25.3871C30.7285 23.7986 29.9745 22.3322 28.8406 21.1871L28.8266 21.1731C28.8222 21.1682 28.8175 21.1635 28.8126 21.1591C27.6674 20.0252 26.2011 19.2712 24.6126 18.9996C23.0241 18.7279 21.3905 18.9517 19.9336 19.6406L30.3591 30.0661Z" fill="#42990E"/>
<path d="M19.026 20.147C18.8777 20.2436 18.7313 20.346 18.587 20.454C14.7695 23.3195 10.3 25.277 5 26.0795C6.18196 27.9801 7.46913 29.8133 8.8555 31.5705L13.675 30.1385L11.6225 34.824C12.1842 35.4373 12.7585 36.0373 13.3455 36.624L13.3735 36.652C13.4195 36.6975 13.4655 36.7435 13.5125 36.789L15.9195 35.639L16.58 39.6205C17.032 40.0085 17.4903 40.39 17.955 40.765L21.4 39.2725C21.4 39.2725 21.3425 41.402 21.2865 43.262C22.1455 43.862 23.0243 44.4413 23.923 45C24.723 39.7 26.683 35.2305 29.5485 31.413C29.6565 31.269 29.7588 31.1226 29.8555 30.974L19.026 20.147Z" fill="#42990E"/>
<path d="M13.4416 11.158L14.7626 13.5735L17.1776 14.8945L14.7626 16.2155L13.4416 18.6305L12.1206 16.2155L9.70508 14.8945L12.1206 13.5735L13.4416 11.158Z" fill="#42990E"/>
<path d="M24.5881 7.42212L25.9091 9.83712L28.3241 11.1581L25.9091 12.4791L24.5881 14.8946L23.2671 12.4791L20.8516 11.1581L23.2671 9.83712L24.5881 7.42212Z" fill="#42990E"/>
<path d="M38.8693 21.4705L40.1903 23.886L42.6058 25.207L40.1903 26.528L38.8693 28.943L37.5483 26.528L35.1328 25.207L37.5483 23.886L38.8693 21.4705Z" fill="#42990E"/>
<path d="M33.779 32.1909L35.1 34.6059L37.5155 35.9269L35.1 37.2479L33.779 39.6634L32.458 37.2479L30.043 35.9269L32.458 34.6059L33.779 32.1909Z" fill="#42990E"/>
</svg>
