<svg width="60" height="60" viewBox="0 0 60 60" fill="none" xmlns="http://www.w3.org/2000/svg">
<g clip-path="url(#clip0_69_1071)">
<path d="M6.53228 38.5914C2.69052 39.3037 0.0269133 42.7677 0.330127 46.6686L0.333879 46.7331L0.87054 59.878H6.03384V53.8889H9.5514V59.878H21.5622V47.1468L16.4547 39.8022V37.3813L6.53228 38.5914Z" fill="#42990E"/>
<path d="M40.6087 38.5915L30.8216 37.3848V39.5997L25.0801 47.1535V59.8784H37.7065V53.6694H41.224V59.8784H46.7386V45.0147C46.2969 41.7612 43.8479 39.1917 40.6087 38.5915Z" fill="#42990E"/>
<path d="M11.1934 15.2599H12.9623L24.0886 9.19805V5.94901H27.6062V9.31449L36.0486 15.0862L36.0509 12.4511C36.0565 9.12595 34.7663 6.00001 32.4181 3.64782C30.0696 1.29552 26.9459 0 23.6222 0C16.7688 0 11.1934 5.57556 11.1934 12.4288V15.2599Z" fill="#42990E"/>
<path d="M19.0749 33.773L19.9735 34.277V38.6991L23.3728 43.5872L27.3049 38.414V34.0426L28.2054 33.5391C31.907 31.4696 34.4445 28.1635 35.3507 24.23L35.665 22.866H37.4542C38.5741 22.866 39.4851 21.9549 39.4851 20.8351C39.4851 19.7967 38.6766 18.9084 37.6442 18.813L35.2155 18.7771L25.7439 12.3018L13.8588 18.7771L9.59707 18.8129C8.56466 18.9083 7.75586 19.7966 7.75586 20.8351C7.75586 21.955 8.66702 22.866 9.78678 22.866H11.6143L11.9279 24.2308C12.8558 28.2686 15.4608 31.7467 19.0749 33.773ZM21.6525 24.6024C21.6525 25.5231 22.4016 26.272 23.3221 26.272C24.2426 26.272 24.9916 25.523 24.9916 24.6024H28.5092C28.5092 27.4627 26.1823 29.7895 23.3221 29.7895C20.4619 29.7895 18.135 27.4625 18.135 24.6024H21.6525Z" fill="#42990E"/>
<path d="M50.4082 29.5283H55.5715V59.9998H50.4082V29.5283Z" fill="#42990E"/>
<path d="M46.2891 6.74023H59.6942V17.0409H46.2891V6.74023Z" fill="#42990E"/>
<path d="M46.2891 20.5581V23.5599C46.2891 24.9113 47.3885 26.0108 48.74 26.0108H57.2433C58.5948 26.0108 59.6942 24.9113 59.6942 23.5599V20.5581H46.2891Z" fill="#42990E"/>
</g>
<defs>
<clipPath id="clip0_69_1071">
<rect width="60" height="60" fill="white"/>
</clipPath>
</defs>
</svg>
