<svg width="60" height="60" viewBox="0 0 60 60" fill="none" xmlns="http://www.w3.org/2000/svg">
<g clip-path="url(#clip0_276_1113)">
<path d="M58.493 14.2596L54.549 13.6866L52.7852 10.1127C52.1405 8.80618 50.2774 8.80618 49.6327 10.1127L47.8689 13.6866L43.9249 14.2596C42.4832 14.4692 41.9074 16.2409 42.9507 17.2579L45.8046 20.0397L45.1309 23.9677C44.8846 25.4037 46.3918 26.4987 47.6814 25.8208L51.2089 23.9663L54.7365 25.8208C56.0261 26.4987 57.5333 25.4037 57.287 23.9677L56.6133 20.0397L59.4671 17.2579C60.5105 16.241 59.9347 14.4692 58.493 14.2596Z" fill="#42990E"/>
<path d="M23.7166 13.0407L22.8355 18.1784C22.5891 19.6145 24.0964 20.7095 25.3859 20.0315L29.9998 17.6058L34.6137 20.0314C35.9033 20.7093 37.4105 19.6143 37.1642 18.1783L36.2831 13.0406L40.0159 9.40204C41.0592 8.38509 40.4834 6.61321 39.0417 6.4038L33.8832 5.65427L31.5761 0.979892C30.9314 -0.326631 29.0683 -0.326631 28.4236 0.979892L26.1166 5.65438L20.9581 6.40392C19.5164 6.61345 18.9406 8.3852 19.9839 9.40216L23.7166 13.0407Z" fill="#42990E"/>
<path d="M13.2422 33.0469H1.75781C0.787031 33.0469 0 33.8339 0 34.8047V58.2422C0 59.213 0.787031 60 1.75781 60H13.2422C14.213 60 15 59.213 15 58.2422V34.8047C15 33.8339 14.213 33.0469 13.2422 33.0469Z" fill="#42990E"/>
<path d="M42.5391 35.3906H34.3359V28.3594C34.3359 25.7706 32.2372 23.6719 29.6484 23.6719C28.354 23.6719 27.3047 24.7212 27.3047 26.0156V31.2891C27.3047 32.4226 26.9302 33.5463 26.25 34.4531C25.2594 35.7739 23.6823 36.5625 22.0312 36.5625H18.5156V56.4844H23.089C25.617 58.7571 28.8511 60 32.2765 60H41.3672C44.7236 60 47.4875 57.4208 47.7846 54.1406H40.1953C39.2245 54.1406 38.4375 53.3536 38.4375 52.3828C38.4375 51.412 39.2245 50.625 40.1953 50.625H47.8125V44.7656H40.1953C39.2245 44.7656 38.4375 43.9786 38.4375 43.0078C38.4375 42.037 39.2245 41.25 40.1953 41.25H47.8125V40.6641C47.8125 37.7563 45.447 35.3906 42.5391 35.3906Z" fill="#42990E"/>
<path d="M16.075 14.2601L12.1311 13.6871L10.3673 10.1132C9.7225 8.80667 7.85945 8.80667 7.21468 10.1132L5.4509 13.6871L1.50695 14.2601C0.0651923 14.4696 -0.51055 16.2414 0.53277 17.2584L3.38664 20.0401L2.71293 23.9682C2.4666 25.4042 3.97386 26.4992 5.2634 25.8212L8.79097 23.9667L12.3186 25.8212C13.6081 26.4992 15.1153 25.4042 14.869 23.9682L14.1953 20.0401L17.0492 17.2584C18.0925 16.2415 17.5168 14.4696 16.075 14.2601Z" fill="#42990E"/>
</g>
<defs>
<clipPath id="clip0_276_1113">
<rect width="60" height="60" fill="white"/>
</clipPath>
</defs>
</svg>
