<svg width="27" height="27" viewBox="0 0 27 27" fill="none" xmlns="http://www.w3.org/2000/svg">
<path d="M23.8555 14.6396C21.0931 14.6396 18.8457 12.3923 18.8457 9.62988C18.8457 9.33868 18.6096 9.10254 18.3184 9.10254C18.0272 9.10254 17.791 9.33868 17.791 9.62988C17.791 12.3923 15.5436 14.6396 12.7812 14.6396C12.49 14.6396 12.2539 14.8758 12.2539 15.167C12.2539 15.4582 12.49 15.6943 12.7812 15.6943C15.5436 15.6943 17.791 17.9417 17.791 20.7041C17.791 20.9953 18.0272 21.2314 18.3184 21.2314C18.6096 21.2314 18.8457 20.9953 18.8457 20.7041C18.8457 17.9417 21.0931 15.6943 23.8555 15.6943C24.1467 15.6943 24.3828 15.4582 24.3828 15.167C24.3828 14.8758 24.1467 14.6396 23.8555 14.6396ZM18.3184 18.2311C17.709 16.8719 16.6135 15.7764 15.2543 15.167C16.6135 14.5576 17.709 13.4621 18.3184 12.103C18.9278 13.4621 20.0233 14.5577 21.3824 15.167C20.0233 15.7764 18.9278 16.8719 18.3184 18.2311Z" fill="#42990E"/>
<path d="M14.0996 18.3311C12.0641 18.3311 10.4082 16.6751 10.4082 14.6396C10.4082 14.3484 10.1721 14.1123 9.88086 14.1123C9.58961 14.1123 9.35352 14.3484 9.35352 14.6396C9.35352 16.6751 7.69755 18.3311 5.66211 18.3311C5.37086 18.3311 5.13477 18.5672 5.13477 18.8584C5.13477 19.1496 5.37086 19.3857 5.66211 19.3857C7.69755 19.3857 9.35352 21.0417 9.35352 23.0771C9.35352 23.3683 9.58961 23.6045 9.88086 23.6045C10.1721 23.6045 10.4082 23.3683 10.4082 23.0771C10.4082 21.0417 12.0642 19.3857 14.0996 19.3857C14.3908 19.3857 14.627 19.1496 14.627 18.8584C14.627 18.5672 14.3909 18.3311 14.0996 18.3311ZM9.88086 20.9041C9.42808 20.0287 8.71058 19.3112 7.83519 18.8584C8.71058 18.4056 9.42808 17.6881 9.88086 16.8127C10.3336 17.6881 11.0511 18.4056 11.9265 18.8584C11.0511 19.3112 10.3336 20.0287 9.88086 20.9041Z" fill="#42990E"/>
<path d="M10.1445 7.52051C12.18 7.52051 13.8359 9.17647 13.8359 11.2119C13.8359 11.5032 14.0721 11.7393 14.3633 11.7393C14.6545 11.7393 14.8906 11.5032 14.8906 11.2119C14.8906 9.17647 16.5466 7.52051 18.582 7.52051C18.8732 7.52051 19.1094 7.28442 19.1094 6.99316C19.1094 6.70196 18.8732 6.46582 18.582 6.46582C16.5466 6.46582 14.8906 4.80991 14.8906 2.77441C14.8906 2.48321 14.6545 2.24707 14.3633 2.24707C14.0721 2.24707 13.8359 2.48321 13.8359 2.77441C13.8359 4.80991 12.18 6.46582 10.1445 6.46582C9.85328 6.46582 9.61719 6.70196 9.61719 6.99316C9.61719 7.28447 9.85328 7.52051 10.1445 7.52051ZM14.3633 4.94749C14.8161 5.82294 15.5336 6.54039 16.409 6.99316C15.5336 7.44594 14.8161 8.16344 14.3633 9.03884C13.9105 8.16344 13.193 7.44594 12.3176 6.99316C13.193 6.54039 13.9105 5.82294 14.3633 4.94749Z" fill="#42990E"/>
<path d="M6.98047 10.6846C6.98047 9.52146 6.0342 8.5752 4.87109 8.5752C3.70798 8.5752 2.76172 9.52146 2.76172 10.6846C2.76172 11.8477 3.70798 12.7939 4.87109 12.7939C6.0342 12.7939 6.98047 11.8477 6.98047 10.6846ZM4.87109 11.7393C4.28954 11.7393 3.81641 11.2661 3.81641 10.6846C3.81641 10.1031 4.28954 9.62988 4.87109 9.62988C5.45265 9.62988 5.92578 10.1031 5.92578 10.6846C5.92578 11.2662 5.45265 11.7393 4.87109 11.7393Z" fill="#42990E"/>
<path d="M21.2188 21.7588C20.3464 21.7588 19.6367 22.4685 19.6367 23.3408C19.6367 24.2132 20.3464 24.9229 21.2188 24.9229C22.0911 24.9229 22.8008 24.2132 22.8008 23.3408C22.8008 22.4685 22.0911 21.7588 21.2188 21.7588ZM21.2188 23.8682C20.928 23.8682 20.6914 23.6316 20.6914 23.3408C20.6914 23.05 20.928 22.8135 21.2188 22.8135C21.5095 22.8135 21.7461 23.05 21.7461 23.3408C21.7461 23.6316 21.5095 23.8682 21.2188 23.8682Z" fill="#42990E"/>
<path d="M22.2734 9.10254C23.1458 9.10254 23.8555 8.39284 23.8555 7.52051C23.8555 6.64818 23.1458 5.93848 22.2734 5.93848C21.4011 5.93848 20.6914 6.64818 20.6914 7.52051C20.6914 8.39284 21.4011 9.10254 22.2734 9.10254ZM22.2734 6.99316C22.5642 6.99316 22.8008 7.22973 22.8008 7.52051C22.8008 7.81134 22.5642 8.04785 22.2734 8.04785C21.9827 8.04785 21.7461 7.81134 21.7461 7.52051C21.7461 7.22978 21.9827 6.99316 22.2734 6.99316Z" fill="#42990E"/>
</svg>
