<svg width="60" height="60" viewBox="0 0 60 60" fill="none" xmlns="http://www.w3.org/2000/svg">
<path d="M20.5745 23.7334H21.8678V24.5867H20.5745V23.7334Z" fill="#42990E"/>
<path d="M13.0139 23.7334H14.3072V24.5867H13.0139V23.7334Z" fill="#42990E"/>
<path d="M26.4006 11.2V20.0267H8.48059V11.2V11.1867C8.49392 10.6267 8.94726 10.1734 9.50726 10.1734H25.3606C25.9339 10.16 26.4006 10.6267 26.4006 11.2Z" fill="#42990E"/>
<path d="M26.4009 21.3201V21.4134C26.4009 21.9867 25.9343 22.4401 25.3743 22.4401H9.52093C8.96093 22.4401 8.49426 21.9867 8.49426 21.4267V21.4134V21.3201H26.4009Z" fill="#42990E"/>
<path d="M9.9082 39.72H22.8282V47.24H9.9082V39.72Z" fill="#42990E"/>
<path d="M9.9082 30.8933H22.8282V38.4133H9.9082V30.8933Z" fill="#42990E"/>
<path d="M58.6673 49.1868C58.6673 49.5468 58.374 49.8401 58.014 49.8401H1.98732C1.62732 49.8401 1.33398 49.5468 1.33398 49.1868C1.33398 48.8268 1.62732 48.5334 1.98732 48.5334H58.0273C58.374 48.5334 58.6673 48.8268 58.6673 49.1868Z" fill="#42990E"/>
<path d="M47.043 30.8933H49.6963V38.6266H47.043V30.8933Z" fill="#42990E"/>
<path d="M51.2687 40.7066V41.4933H31.082V40.7066C31.082 40.2799 31.4287 39.9199 31.8687 39.9199H50.4954C50.922 39.9199 51.2687 40.2799 51.2687 40.7066Z" fill="#42990E"/>
<path d="M44.1608 38.1601V38.6268H38.1875V38.1601C38.1875 37.9068 38.4008 37.6934 38.6542 37.6934H43.6808C43.9475 37.6801 44.1608 37.9068 44.1608 38.1601Z" fill="#42990E"/>
<path d="M40.4546 25.8933L39.7746 29.6H9.13458C8.10792 29.6 7.28125 28.7733 7.28125 27.7466C7.28125 26.72 8.10792 25.8933 9.13458 25.8933H40.4546Z" fill="#42990E"/>
<path d="M46.8012 14.4L42.7479 36.3867H39.8279L43.8279 14.6267C43.9745 13.8667 44.4279 13.04 45.3079 13.04C45.7745 13.04 46.2679 13.2667 46.5479 13.6134C46.7079 13.7867 46.8679 14.0667 46.8012 14.4Z" fill="#42990E"/>
<path d="M52.7203 27.7466C52.7203 28.7733 51.8936 29.6 50.867 29.6H45.3203L46.0003 25.8933H50.867C51.8936 25.8933 52.7203 26.72 52.7203 27.7466Z" fill="#42990E"/>
<path d="M39.5346 30.8933L38.5213 36.4C37.6146 36.4666 36.8946 37.24 36.8946 38.16V38.6266H31.868C30.7213 38.6266 29.788 39.56 29.788 40.7066V42.0133L27.908 46.8933C27.868 47 27.8413 47.12 27.8413 47.24H24.1346V30.8933H39.5346Z" fill="#42990E"/>
<path d="M45.7484 30.8933V38.6266H45.455V38.16C45.455 37.32 44.855 36.6 44.0684 36.44L45.0817 30.9066H45.7484V30.8933Z" fill="#42990E"/>
<path d="M53.174 47.2133C53.1473 47.2266 53.1073 47.24 53.0806 47.24H51.1606L50.6006 45.16C50.5073 44.8133 50.1473 44.6133 49.8006 44.7066C49.454 44.8 49.254 45.16 49.3473 45.5066L49.814 47.2533H49.3606L48.8006 45.1733C48.7073 44.8266 48.3473 44.6266 48.0006 44.72C47.654 44.8133 47.454 45.1733 47.5473 45.52L48.014 47.2666H47.5606L47.0006 45.1866C46.9073 44.84 46.5473 44.64 46.2006 44.7333C45.854 44.8266 45.654 45.1866 45.7473 45.5333L46.214 47.28H45.7606L45.2006 45.2C45.1073 44.8533 44.7473 44.6533 44.4006 44.7466C44.054 44.84 43.854 45.2 43.9473 45.5466L44.414 47.2933H43.9606L43.4006 45.2133C43.3073 44.8666 42.9473 44.6666 42.6006 44.76C42.254 44.8533 42.054 45.2133 42.1473 45.56L42.614 47.3066H40.8806L41.3473 45.56C41.4406 45.2133 41.2406 44.8533 40.894 44.76C40.5473 44.6666 40.1873 44.8666 40.094 45.2133L39.5339 47.2933H38.8006L39.2673 45.5466C39.3606 45.2 39.1606 44.84 38.814 44.7466C38.4673 44.6533 38.1073 44.8533 38.014 45.2L37.4539 47.28H36.7073L37.1739 45.5333C37.2673 45.1866 37.0673 44.8266 36.7206 44.7333C36.3739 44.64 36.0139 44.84 35.9206 45.1866L35.3606 47.2666H34.614L35.0806 45.52C35.174 45.1733 34.974 44.8133 34.6273 44.72C34.2806 44.6266 33.9206 44.8266 33.8273 45.1733L33.2673 47.2533H32.5339L33.0006 45.5066C33.094 45.16 32.894 44.8 32.5473 44.7066C32.2006 44.6133 31.8406 44.8133 31.7473 45.16L31.1873 47.24H29.2673C29.2406 47.24 29.2006 47.2266 29.174 47.2133L30.8806 42.7866H51.4673L53.174 47.2133Z" fill="#42990E"/>
<path d="M38.761 16.4401L36.4543 17.5334C36.321 17.6001 36.2143 17.7067 36.1477 17.8401L35.0543 20.1467L33.961 17.8401C33.8943 17.7067 33.7877 17.6001 33.6543 17.5334L31.3477 16.4401L33.6543 15.3467C33.7877 15.2801 33.8943 15.1734 33.961 15.0401L35.0543 12.7334L36.1477 15.0401C36.2143 15.1734 36.321 15.2801 36.4543 15.3467L38.761 16.4401Z" fill="#42990E"/>
</svg>
