<svg width="60" height="60" viewBox="0 0 60 60" fill="none" xmlns="http://www.w3.org/2000/svg">
<path d="M15.2199 33.1319V36.9376H45.0827L45.0999 33.1319C45.0999 29.6519 47.5941 26.6947 50.8256 26.1204V22.9319C50.8256 21.6719 49.8056 20.6519 48.5456 20.6519H43.077C43.0427 20.7461 43.0084 20.8319 42.9656 20.9176L39.8713 27.1833C39.4084 28.1347 39.3313 29.249 39.6827 30.2519L40.4799 32.5661C40.6513 33.0633 40.5741 33.6204 40.2656 34.049C39.8199 34.6661 38.9713 34.9404 38.1999 34.5633L18.417 24.8004C17.817 24.509 17.457 23.8833 17.4999 23.2233C17.5513 22.5547 17.9884 21.989 18.6227 21.7747C20.8856 20.9947 21.117 21.0033 21.6999 20.6519H11.7741C10.5141 20.6519 9.49414 21.6719 9.49414 22.9319V26.1204C12.7256 26.6947 15.2199 29.6519 15.2199 33.1319ZM24.3399 30.5776C25.6084 30.5776 26.637 31.6061 26.637 32.8747C26.637 34.1433 25.6084 35.1719 24.3399 35.1719C23.0713 35.1719 22.0427 34.1433 22.0427 32.8747C22.0427 31.6061 23.0713 30.5776 24.3399 30.5776Z" fill="#42990E"/>
<path d="M15.2188 41.6005L45.073 41.6348L45.0816 38.2234H15.2188V41.6005Z" fill="#42990E"/>
<path d="M41.815 20.3433C42.2435 19.469 41.8835 18.4062 41.0092 17.9776L38.1378 16.5547L41.9864 8.74618C42.7235 7.26332 42.1321 5.46332 40.6235 4.72618C39.1407 3.98903 37.3407 4.59761 36.6035 6.08903L32.755 13.8976L29.875 12.4833C28.9921 12.0462 27.9378 12.4062 27.5007 13.289L26.2578 15.8005L40.5721 22.8633L41.815 20.3433Z" fill="#42990E"/>
<path d="M19.024 23.0004C18.724 23.0947 18.6982 23.5061 18.9811 23.6518L24.5097 26.3775L26.4502 22.4381C26.6131 22.121 26.9988 21.9838 27.316 22.1467C27.6331 22.301 27.7617 22.6867 27.6074 23.0038L25.6668 26.9433L28.2982 28.2461L29.5188 25.7638C29.6817 25.4467 30.0588 25.3181 30.3845 25.4724C30.7017 25.6353 30.8302 26.021 30.676 26.3381L29.4554 28.8118L32.0868 30.1147L35.1074 23.9895C35.2617 23.6724 35.6474 23.5438 35.9731 23.6981C36.2902 23.861 36.4188 24.2467 36.2645 24.5638L33.244 30.689L38.7725 33.4147C39.0554 33.5518 39.364 33.2861 39.2611 32.9861L38.464 30.6718C38.0011 29.3433 38.0954 27.8775 38.7211 26.6175L40.0068 24.0204L25.6925 16.949L24.4068 19.5547C23.7897 20.8147 22.684 21.7747 21.3468 22.2204L19.024 23.0004Z" fill="#42990E"/>
<path d="M56.013 54.3007H47.9533V49.9155H51.3905C52.5562 49.9155 53.4905 48.9813 53.4905 47.8241C53.4905 47.8241 53.4733 38.387 53.4733 38.2927C55.8476 37.6498 57.5876 35.4813 57.5876 32.9013C57.5876 29.7555 54.999 27.2184 51.8276 27.3041C48.759 27.3898 46.3848 30.0641 46.3848 33.1327V41.6098C46.3848 42.3298 45.8019 42.9213 45.0733 42.9213H15.2533C14.5248 42.9213 13.9333 42.3298 13.9333 41.6098V33.1327C13.9333 30.0641 11.559 27.3898 8.49047 27.3041C5.31904 27.2184 2.73047 29.7555 2.73047 32.9013C2.73047 35.4813 4.47047 37.6498 6.84475 38.2927V47.8241C6.84475 48.9813 7.78761 49.9155 8.94475 49.9155H12.3733V54.3007H4.30847C3.95361 54.3007 3.66561 54.5887 3.66561 54.9435C3.66561 55.2984 3.95361 55.5864 4.30847 55.5864H56.013C56.3679 55.5864 56.6559 55.2984 56.6559 54.9435C56.6559 54.5887 56.3679 54.3007 56.013 54.3007ZM52.0505 30.5433C53.3362 30.5433 54.3819 31.589 54.3819 32.8747C54.3819 34.1604 53.3362 35.2061 52.0505 35.2061C50.7648 35.2061 49.719 34.1604 49.719 32.8747C49.719 31.589 50.7648 30.5433 52.0505 30.5433ZM8.20761 35.2061C6.9219 35.2061 5.88475 34.1604 5.88475 32.8747C5.88475 31.589 6.9219 30.5433 8.20761 30.5433C9.5019 30.5433 10.5476 31.589 10.5476 32.8747C10.5476 34.1604 9.5019 35.2061 8.20761 35.2061ZM18.0219 49.9147H42.3048L45.0913 54.2998H15.2276L18.0219 49.9147Z" fill="#42990E"/>
<path d="M45.9202 16.985C47.0182 16.985 47.9088 16.0944 47.9088 14.9964C47.9088 13.8984 47.0182 13.0078 45.9202 13.0078C44.8222 13.0078 43.9316 13.8984 43.9316 14.9964C43.9316 16.0952 44.8222 16.985 45.9202 16.985Z" fill="#42990E"/>
<path d="M18.7856 17.0331C19.9102 17.0331 20.8213 16.122 20.8213 14.9974C20.8213 13.8728 19.9102 12.9617 18.7856 12.9617C17.661 12.9617 16.7499 13.8737 16.7499 14.9974C16.7499 16.1211 17.661 17.0331 18.7856 17.0331Z" fill="#42990E"/>
</svg>
