<svg width="50" height="48" viewBox="0 0 50 48" fill="none" xmlns="http://www.w3.org/2000/svg">
<g clip-path="url(#clip0_24_994)">
<path d="M35.9128 48C41.4716 48 45.742 42.816 45.3333 37.2723C44.7165 28.9072 44.8292 16.6742 48.541 4.33822C49.1796 2.21598 47.6389 2.06411e-07 45.4227 4.0016e-07C44.5211 4.78978e-07 43.6724 0.372098 43.1107 1.07728C40.0489 4.92088 30.0577 18.8334 27.7187 39.3253C27.1747 44.0921 31.1151 48 35.9128 48Z" fill="#42990E"/>
<path d="M8.68625 48C14.2451 48 18.5155 42.816 18.1067 37.2723C17.4899 28.9072 17.6026 16.6742 21.3144 4.33822C21.953 2.21598 20.4124 2.06411e-07 18.1961 4.0016e-07C17.2946 4.78978e-07 16.4459 0.372094 15.8841 1.07728C12.8224 4.92088 2.83109 18.8334 0.492179 39.3253C-0.0518951 44.0921 3.88852 48 8.68625 48Z" fill="#42990E"/>
</g>
<defs>
<clipPath id="clip0_24_994">
<rect width="50" height="48" fill="white" transform="translate(50 48) rotate(180)"/>
</clipPath>
</defs>
</svg>
