<svg width="30" height="30" viewBox="0 0 30 30" fill="none" xmlns="http://www.w3.org/2000/svg">
<path fill-rule="evenodd" clip-rule="evenodd" d="M6.14508 15.0005C6.14508 14.0261 6.3069 13.0921 6.59572 12.2159L1.54037 8.35547C0.555106 10.3559 0 12.61 0 15.0005C0 17.3889 0.554423 19.6416 1.53832 21.6407L6.59094 17.7727C6.30485 16.9007 6.14508 15.97 6.14508 15.0005Z" fill="#FBBC05"/>
<path fill-rule="evenodd" clip-rule="evenodd" d="M15.022 6.13636C17.1386 6.13636 19.0504 6.88636 20.5525 8.11364L24.9224 3.75C22.2595 1.43182 18.8456 0 15.022 0C9.08581 0 3.98403 3.39477 1.54102 8.355L6.59637 12.2155C7.7612 8.67955 11.0816 6.13636 15.022 6.13636Z" fill="#EB4335"/>
<path fill-rule="evenodd" clip-rule="evenodd" d="M15.022 23.8633C11.0816 23.8633 7.7612 21.3201 6.59637 17.7842L1.54102 21.644C3.98403 26.6049 9.08581 29.9996 15.022 29.9996C18.6858 29.9996 22.1837 28.6987 24.809 26.2612L20.0104 22.5515C18.6564 23.4044 16.9515 23.8633 15.022 23.8633Z" fill="#34A853"/>
<path fill-rule="evenodd" clip-rule="evenodd" d="M29.36 14.9997C29.36 14.1134 29.2234 13.1588 29.0186 12.2725H15.0215V18.0679H23.0784C22.6755 20.0438 21.579 21.5629 20.0099 22.5516L24.8085 26.2613C27.5663 23.7018 29.36 19.8891 29.36 14.9997Z" fill="#4285F4"/>
</svg>
