<svg width="30" height="30" viewBox="0 0 30 30" fill="none" xmlns="http://www.w3.org/2000/svg">
<path d="M17.9277 2.78956L19.2053 3.0253C19.5809 2.53286 19.8547 2.06007 20.2382 1.70383C20.84 1.14591 22.0117 1.20484 22.6783 1.74312C23.3105 2.25259 23.4255 2.96898 22.9957 3.82289C22.8754 4.06387 22.7299 4.297 22.558 4.50393C21.1521 6.20651 19.7237 7.89209 18.3351 9.61039C18.0944 9.909 18.0177 10.3412 17.8127 10.8415C20.1866 10.8415 22.3384 10.848 24.4889 10.8245C24.6132 10.8232 24.7944 10.6071 24.846 10.4564C24.9094 10.2692 24.8499 10.0439 24.8698 9.83696C24.9108 9.37988 24.7164 9.20701 24.2535 9.21749C23.2708 9.23975 22.2868 9.22665 21.3015 9.22011C21.0899 9.21879 20.877 9.18736 20.6006 9.16379C21.0794 8.66611 21.5039 8.26797 21.8782 7.82789C22.7524 6.79848 23.6372 5.77562 24.4466 4.69776C24.8751 4.12543 24.9994 3.43654 24.8764 2.68347C24.5034 0.387605 21.4206 -0.631325 19.6444 0.405941C18.7477 0.931122 18.2425 1.76408 17.9277 2.78956Z" fill="#FF71BE"/>
<path d="M18.0163 18.2399H24.2323C24.1172 18.5634 24.0432 18.8174 23.9374 19.0584C21.9827 23.4851 16.8829 25.9237 12.1588 24.4281C8.64216 23.3149 6.37267 20.943 5.49979 17.4148C4.60311 13.7948 5.61353 10.6175 8.31946 8.02437C9.95677 6.45535 11.9326 5.58048 14.2206 5.44166C14.5724 5.4207 14.9309 5.42856 14.9203 4.88242C14.8963 3.50737 14.8955 2.13201 14.9176 0.756935C14.9229 0.320812 14.7285 0.210799 14.3436 0.259257C13.4549 0.371889 12.5476 0.403321 11.6787 0.599773C4.04235 2.31283 -0.885445 9.39953 0.132913 17.1607C1.19227 25.2349 8.78102 31.0263 16.9583 29.8475C23.3012 28.9321 27.4276 25.2663 29.3902 19.2234C30.0674 17.1424 30.148 14.9892 29.7923 12.8191H18.0163V18.2399Z" fill="#FF71BE"/>
</svg>
