<svg width="46" height="50" viewBox="0 0 46 50" fill="none" xmlns="http://www.w3.org/2000/svg">
<path fill-rule="evenodd" clip-rule="evenodd" d="M45.8222 21.1091C45.8222 27.3661 40.7309 32.4574 34.4738 32.4574C28.2171 32.4574 23.1258 27.3661 23.1258 21.1091C23.1258 15.3737 32.1736 2.12395 33.2165 0.621071C33.7686 -0.207024 35.1488 -0.207024 35.7315 0.621071C36.7744 2.12395 45.8222 15.3737 45.8222 21.1091ZM40.4855 37.2114C36.9888 44.2043 29.7505 49.0199 21.3776 49.0199C9.56927 49.0199 0 39.4504 0 27.6728C0 27.2742 2.28265e-08 26.8753 0.0613358 26.5073C0.828094 28.1636 1.90156 29.8811 3.2204 31.4761C6.01146 34.9111 9.96798 38.0701 14.5379 38.9905C15.3661 39.1437 16.1635 38.5916 16.3475 37.7635C16.5009 36.9353 15.9794 36.1382 15.1513 35.9847C11.5322 35.2485 8.12773 32.6722 5.61274 29.5438C4.35524 28.0104 3.34311 26.3848 2.66835 24.8817C2.11627 23.655 1.80956 22.5508 1.71755 21.7227L1.72892 21.7175C0.965411 17.2402 2.22929 12.6702 5.30603 8.99445C9.13986 4.39383 15.2127 2.06286 21.5308 2.70695C22.3589 2.79895 22.9723 3.53507 22.911 4.39383C22.8191 5.25263 22.0216 5.83535 21.2241 5.77401C15.8261 5.22196 10.8574 7.12352 7.66768 10.988C5.29632 13.8285 4.2534 17.311 4.70818 20.7583C6.84988 20.3643 8.79764 20.6716 10.6427 21.4773C13.8325 22.8882 16.8997 25.894 20.1506 30.2184C25.3954 37.2114 31.4067 38.6532 36.1914 38.193C37.817 38.0089 39.2891 37.6409 40.4855 37.2114Z" fill="#42990E"/>
</svg>
