<svg width="50" height="50" viewBox="0 0 50 50" fill="none" xmlns="http://www.w3.org/2000/svg">
<g clip-path="url(#clip0_1032_9646)">
<path d="M5.44389 32.1592C2.24243 32.7528 0.0227533 35.6395 0.275431 38.8903L0.278558 38.944L0.725776 49.8981H5.02853V44.9072H7.95982V49.8981H17.9688V39.2887L13.7126 33.1683V31.1509L5.44389 32.1592Z" fill="#42990E"/>
<path d="M33.8409 32.1594L25.685 31.1538V32.9995L20.9004 39.2944V49.8985H31.4224V44.7243H34.3537V49.8985H38.9492V37.5121C38.5811 34.8008 36.5402 32.6596 33.8409 32.1594Z" fill="#42990E"/>
<path d="M9.32812 12.7165H10.8023L20.0742 7.66505V4.95751H23.0055V7.76207L30.0409 12.5718L30.0427 10.3759C30.0474 7.60495 28.9722 5.00001 27.0154 3.03985C25.0583 1.0796 22.4553 0 19.6855 0C13.9743 0 9.32812 4.6463 9.32812 10.3573V12.7165Z" fill="#42990E"/>
<path d="M15.8954 28.1442L16.6443 28.5642V32.2493L19.477 36.3227L22.7538 32.0116V28.3688L23.5042 27.9493C26.5889 26.2247 28.7034 23.4696 29.4586 20.1917L29.7205 19.055H31.2115C32.1448 19.055 32.904 18.2957 32.904 17.3626C32.904 16.4973 32.2302 15.757 31.3698 15.6775L29.346 15.6476L21.453 10.2515L11.5487 15.6476L7.99723 15.6774C7.13689 15.7569 6.46289 16.4972 6.46289 17.3626C6.46289 18.2958 7.22219 19.055 8.15532 19.055H9.67823L9.9396 20.1924C10.7129 23.5572 12.8837 26.4556 15.8954 28.1442ZM18.0435 20.502C18.0435 21.2692 18.6676 21.8933 19.4348 21.8933C20.2019 21.8933 20.826 21.2691 20.826 20.502H23.7573C23.7573 22.8855 21.8183 24.8246 19.4348 24.8246C17.0512 24.8246 15.1122 22.8854 15.1122 20.502H18.0435Z" fill="#42990E"/>
<path d="M42.0078 24.6069H46.3106V49.9999H42.0078V24.6069Z" fill="#42990E"/>
<path d="M38.5742 5.6167H49.7452V14.2006H38.5742V5.6167Z" fill="#42990E"/>
<path d="M38.5742 17.1318V19.6333C38.5742 20.7595 39.4904 21.6757 40.6166 21.6757H47.7028C48.829 21.6757 49.7452 20.7595 49.7452 19.6333V17.1318H38.5742Z" fill="#42990E"/>
</g>
<defs>
<clipPath id="clip0_1032_9646">
<rect width="50" height="50" fill="white"/>
</clipPath>
</defs>
</svg>
