<svg width="50" height="50" viewBox="0 0 50 50" fill="none" xmlns="http://www.w3.org/2000/svg">
<g clip-path="url(#clip0_1032_9669)">
<path d="M48.7435 11.8832L45.4569 11.4056L43.987 8.42742C43.4497 7.33865 41.8972 7.33865 41.3599 8.42742L39.8901 11.4056L36.6034 11.8832C35.402 12.0578 34.9222 13.5343 35.7916 14.3817L38.1699 16.6999L37.6084 19.9732C37.4032 21.1699 38.6592 22.0824 39.7338 21.5175L42.6735 19.972L45.6131 21.5175C46.6877 22.0824 47.9438 21.1699 47.7385 19.9732L47.1771 16.6999L49.5553 14.3817C50.4247 13.5344 49.945 12.0578 48.7435 11.8832Z" fill="#42990E"/>
<path d="M19.7635 10.8673L19.0292 15.1487C18.824 16.3454 20.08 17.2579 21.1546 16.6929L24.9995 14.6715L28.8445 16.6928C29.9191 17.2578 31.1751 16.3453 30.9699 15.1486L30.2356 10.8672L33.3462 7.83503C34.2157 6.98757 33.7359 5.51101 32.5344 5.3365L28.2357 4.71189L26.3131 0.816577C25.7758 -0.272192 24.2233 -0.272192 23.686 0.816577L21.7635 4.71199L17.4648 5.3366C16.2633 5.51121 15.7835 6.98767 16.653 7.83513L19.7635 10.8673Z" fill="#42990E"/>
<path d="M11.0352 27.5391H1.46484C0.655859 27.5391 0 28.1949 0 29.0039V48.5352C0 49.3441 0.655859 50 1.46484 50H11.0352C11.8441 50 12.5 49.3441 12.5 48.5352V29.0039C12.5 28.1949 11.8441 27.5391 11.0352 27.5391Z" fill="#42990E"/>
<path d="M35.4492 29.4922H28.6133V23.6328C28.6133 21.4755 26.8644 19.7266 24.707 19.7266C23.6283 19.7266 22.7539 20.601 22.7539 21.6797V26.0742C22.7539 27.0188 22.4418 27.9553 21.875 28.7109C21.0495 29.8116 19.7353 30.4688 18.3594 30.4688H15.4297V47.0703H19.2408C21.3475 48.9643 24.0426 50 26.8971 50H34.4727C37.2696 50 39.5729 47.8507 39.8205 45.1172H33.4961C32.6871 45.1172 32.0312 44.4613 32.0312 43.6523C32.0312 42.8434 32.6871 42.1875 33.4961 42.1875H39.8438V37.3047H33.4961C32.6871 37.3047 32.0312 36.6488 32.0312 35.8398C32.0312 35.0309 32.6871 34.375 33.4961 34.375H39.8438V33.8867C39.8438 31.4636 37.8725 29.4922 35.4492 29.4922Z" fill="#42990E"/>
<path d="M13.3958 11.8832L10.1092 11.4056L8.63939 8.42742C8.10208 7.33865 6.54954 7.33865 6.01224 8.42742L4.54241 11.4056L1.25579 11.8832C0.0543269 12.0578 -0.425458 13.5343 0.443975 14.3817L2.8222 16.6999L2.26077 19.9732C2.0555 21.1699 3.31155 22.0824 4.38616 21.5175L7.32581 19.972L10.2655 21.5175C11.3401 22.0824 12.5961 21.1699 12.3909 19.9732L11.8294 16.6999L14.2076 14.3817C15.0771 13.5344 14.5973 12.0578 13.3958 11.8832Z" fill="#42990E"/>
</g>
<defs>
<clipPath id="clip0_1032_9669">
<rect width="50" height="50" fill="white"/>
</clipPath>
</defs>
</svg>
