<svg width="50" height="50" viewBox="0 0 50 50" fill="none" xmlns="http://www.w3.org/2000/svg">
<path d="M36.4582 26.8757C30.9335 26.8757 26.4512 31.358 26.4512 36.8679C26.4512 42.3927 30.9335 46.875 36.4582 46.875C41.968 46.875 46.4504 42.3927 46.4504 36.8679C46.4504 31.358 41.968 26.8757 36.4582 26.8757ZM40.464 35.8552L36.1752 40.0249C35.9072 40.2929 35.5349 40.4418 35.1477 40.4418H34.984C34.5372 40.3822 34.1351 40.144 33.8969 39.7717L32.229 37.2253C31.7823 36.5403 31.9759 35.617 32.6608 35.1702C33.346 34.7235 34.2692 34.9171 34.7159 35.6021L35.4009 36.6296L38.3941 33.7258C38.9748 33.145 39.9279 33.1599 40.4938 33.7556C41.0746 34.3363 41.0597 35.2745 40.464 35.8552Z" fill="#42990E"/>
<path d="M3.54883 11.3994V15.837H45.245V11.3994C45.245 8.94222 43.2347 6.93197 40.7776 6.93197H36.0541V4.61416C36.0541 3.79171 35.3881 3.125 34.565 3.125C33.7419 3.125 33.0758 3.79171 33.0758 4.61416V6.93197H15.718V4.61416C15.718 3.79171 15.052 3.125 14.2288 3.125C13.4057 3.125 12.7397 3.79171 12.7397 4.61416V6.93197H8.01622C5.55908 6.93197 3.54883 8.94222 3.54883 11.3994Z" fill="#42990E"/>
<path d="M3.54883 38.5046C3.54883 40.9616 5.55908 42.9721 8.01622 42.9721H25.0075C24.0246 41.1552 23.4737 39.0705 23.4737 36.8665C23.4737 29.7186 29.2962 23.896 36.459 23.896C39.8394 23.896 42.9219 25.2065 45.245 27.321V18.818H3.54883V38.5046Z" fill="#42990E"/>
</svg>
