<svg width="50" height="50" viewBox="0 0 50 50" fill="none" xmlns="http://www.w3.org/2000/svg">
<path d="M25.2207 6.34167C20.4999 6.34167 16.6582 10.3375 16.6582 15.25C16.6582 20.0729 20.277 23.9792 25.0061 24.1375C25.1415 24.125 25.2895 24.1229 25.4103 24.1375C25.4395 24.1396 25.4686 24.1417 25.4978 24.1417H25.527C30.1374 23.9813 33.7645 20.0771 33.7832 15.2521C33.7832 10.3396 29.9436 6.34376 25.2207 6.34376V6.34167Z" fill="#42990E"/>
<path d="M34.3768 29.1437C29.3456 25.65 21.1331 25.6458 16.0685 29.1437C16.0685 29.1437 16.0685 29.1437 16.0643 29.1437C13.7852 30.7312 12.531 32.8833 12.5352 35.2021C12.5393 37.5146 13.7935 39.6562 16.0664 41.2291C18.5914 42.9875 21.906 43.8666 25.2227 43.8666C28.5393 43.8666 31.8539 42.9875 34.3789 41.2291C36.6581 39.6396 37.9122 37.4896 37.9081 35.1708C37.9039 32.8583 36.6497 30.7166 34.3768 29.1437Z" fill="#42990E"/>
<path d="M45.0363 16.3562C45.3238 19.9958 42.8405 23.1771 39.3884 23.6187L39.353 23.6229L39.3009 23.6271C39.1947 23.6187 39.0905 23.6271 38.9884 23.6562C37.2426 23.7416 35.6342 23.1583 34.4238 22.1021C36.278 20.3833 37.3384 17.7875 37.1197 14.9812C36.9926 13.4604 36.4884 12.0666 35.7238 10.8958C36.4134 10.5416 37.1988 10.3062 38.0176 10.2312C41.5842 9.90623 44.7238 12.6479 45.0363 16.3583V16.3562Z" fill="#42990E"/>
<path d="M48.6546 33.7104C48.5025 35.5229 47.3921 37.0979 45.5108 38.1708C43.7046 39.2125 41.4379 39.6833 39.1796 39.6291C40.4775 38.4104 41.2379 36.8979 41.3733 35.2708C41.5504 32.952 40.49 30.7083 38.3587 28.9312C37.1566 27.9375 35.74 27.1479 34.2129 26.577C38.2046 25.377 43.2046 26.1895 46.3004 28.7708C47.9566 30.1645 48.8046 31.9166 48.6546 33.7104Z" fill="#42990E"/>
<path d="M5.38982 16.3562C5.10232 19.9958 7.58565 23.1771 11.0377 23.6187L11.0732 23.6229L11.1252 23.6271C11.2315 23.6187 11.3357 23.6271 11.4377 23.6562C13.1836 23.7416 14.7919 23.1583 16.0023 22.1021C14.1482 20.3833 13.0877 17.7875 13.3065 14.9812C13.4336 13.4604 13.9377 12.0666 14.7023 10.8958C14.0127 10.5416 13.2273 10.3062 12.4086 10.2312C8.8419 9.90623 5.70232 12.6479 5.38982 16.3583V16.3562Z" fill="#42990E"/>
<path d="M1.77285 33.7104C1.92493 35.5229 3.03535 37.0979 4.9166 38.1708C6.72285 39.2125 8.98952 39.6833 11.2479 39.6291C9.94993 38.4104 9.18952 36.8979 9.0541 35.2708C8.87702 32.952 9.93743 30.7083 12.0687 28.9312C13.2708 27.9375 14.6874 27.1479 16.2145 26.577C12.2229 25.377 7.22285 26.1895 4.12702 28.7708C2.47077 30.1645 1.62285 31.9166 1.77285 33.7104Z" fill="#42990E"/>
</svg>
